******************************************************************************
 Cowboys and Aliens.Extended.2011.720p.BRRip.Xvid.AC3-SiNiSTER
*******************************************************************************
-------------------------------------------------------------------------------
 General Information
------------------------------------------------------------------------------- 
http://www.pix2links.com/image/PHAOG.jpg
Format : AVI
Format/Info : Audio Video Interleave
Format profile : OpenDML
File size : 2.81 GiB
Duration : 1h 52mn
Overall bit rate : 3 583 Kbps
Writing library : MPlayer
Format : AVI
Format/Info : Audio Video Interleave
Format profile : OpenDML
File size : 3.39 GiB
Duration : 2h 15mn
Overall bit rate : 3 594 Kbps
Writing library : MPlayer
Video
ID : 0
Format : MPEG-4 Visual
Format profile : Advanced Simple@L5
Format settings, BVOP : Yes
Format settings, QPel : No
Format settings, GMC : No warppoints
Format settings, Matrix : Default (H.263)
Muxing mode : Packed bitstream
Codec ID : XVID
Codec ID/Hint : XviD
Duration : 2h 15mn
Bit rate : 3 013 Kbps
Width : 1 280 pixels
Height : 528 pixels
Display aspect ratio : 2.40:1
Frame rate : 23.976 fps
Color space : YUV
Chroma subsampling : 4:2:0
Bit depth : 8 bits
Scan type : Progressive
Bits/(Pixel*Frame) : 0.186
Stream size : 2.85 GiB (84%)
Writing library : XviD 1.2.1 (UTC 2008-12-04)
Audio
ID : 1
Format : AC-3
Format/Info : Audio Coding 3
Mode extension : CM (complete main)
Codec ID : 2000
Duration : 2h 15mn
Bit rate mode : Constant
Bit rate : 576 Kbps
Channel(s) : 6 channels
Channel positions : Front: L C R, Side: L R, LFE
Sampling rate : 48.0 KHz
Bit depth : 16 bits
Stream size : 557 MiB (16%)
Alignment : Split accross interleaves
Interleave, duration : 500 ms (11.99 video frames)
Interleave, preload duration : 500 ms
Video Source: cowboys.and.aliens.2011.extended.720p.bluray.x264-crossbow.....thanks	
Audio Source: cowboys.and.aliens.2011.extended.720p.bluray.x264-crossbow.....thanks
Greets:
DarkScene,HDScene,Noir,CrEwSaDe,blackjesus,ViSiON,HDLiTE,BTVRG,Twentyforty,UnKnOwN,
FLAWL3SS,Rx,Relizlab,MiSTERE,ILLUMiNATI,SAFCuk009,HiVE-CM8..... and everybody else we 
respect.. u know who u are
 
-------------------------------------------------------------------------------
 Post Information
-------------------------------------------------------------------------------
Encoded by...........: SiNiSTER
 
Have sumthing to offer..looking for suppliers... cammers,cams,screeners, audio
supplier.. and any pre retail DVD/BR any RC...if u can provide any email us at
sinister@hushmail.me
-------------------------------------------------------------------------------
 Release Notes
-------------------------------------------------------------------------------
source was very nice.. made a script to denoise, slightly adjust RGB, and sharpen
then just converted the DTS to AC3 and mued it back to my encode....enjoy
and this is the EXTENDED release.. it has 17 minutes of additional footage in it..
-------------------------------------------------------------------------------
 ScreenShots
------------------------------------------------------------------------------- 
http://www.pix2links.com/image/OZUoS.png 
http://www.pix2links.com/image/wKYk.png 
http://www.pix2links.com/image/nyota.png 
http://www.pix2links.com/image/Imrv9.png 
http://www.pix2links.com/image/Efr7X.jpg
-------------------------------------------------------------------------------
[img]http://leetleech.org/images/33506450373550172140.gif[/img]
-------------------------------------------------------------------------------
Generated with Cool NFO Creator - http://fly.to/coolbeans
------------------------------------------------------------------------------- 
http://www.pix2links.com/images/33502453931372952618.gif